{
  "accessors": [
    {
      "bufferView": 2,
      "componentType": 5126,
      "count": 12219,
      "max": [
        3.1954100131988525,
        35.457500457763672,
        4.0660500526428223
      ],
      "min": [
        -3.6566801071166992,
        3.7303199768066406,
        -1.309999942779541
      ],
      "type": "VEC3"
    },
    {
      "bufferView": 2,
      "byteOffset": 146628,
      "componentType": 5126,
      "count": 12219,
      "max": [
        0.97871971130371094,
        0.98546308279037476,
        0.99999940395355225
      ],
      "min": [
        -0.99997782707214355,
        -0.99925392866134644,
        -0.98937278985977173
      ],
      "type": "VEC3"
    },
    {
      "bufferView": 1,
      "componentType": 5126,
      "count": 12219,
      "max": [
        0.99090301990509033,
        0.99189800024032593
      ],
      "min": [
        0.0080960001796483994,
        0.0099489996209740639
      ],
      "type": "VEC2"
    },
    {
      "bufferView": 0,
      "componentType": 5125,
      "count": 64089,
      "max": [
        12218
      ],
      "min": [
        0
      ],
      "type": "SCALAR"
    },
    {
      "bufferView": 2,
      "byteOffset": 293256,
      "componentType": 5126,
      "count": 14207,
      "max": [
        3.2726700305938721,
        35.014999389648438,
        4.0664200782775879
      ],
      "min": [
        -4.6911401748657227,
        3.056459903717041,
        -1.3344999551773071
      ],
      "type": "VEC3"
    },
    {
      "bufferView": 2,
      "byteOffset": 463740,
      "componentType": 5126,
      "count": 14207,
      "max": [
        0.99434524774551392,
        0.99044901132583618,
        1
      ],
      "min": [
        -0.99999547004699707,
        -0.99996095895767212,
        -0.99876183271408081
      ],
      "type": "VEC3"
    },
    {
      "bufferView": 1,
      "byteOffset": 97752,
      "componentType": 5126,
      "count": 14207,
      "max": [
        0.9914659857749939,
        0.99188798666000366
      ],
      "min": [
        0.0082259997725486755,
        0.0085610002279281616
      ],
      "type": "VEC2"
    },
    {
      "bufferView": 0,
      "byteOffset": 256356,
      "componentType": 5125,
      "count": 73587,
      "max": [
        14206
      ],
      "min": [
        0
      ],
      "type": "SCALAR"
    },
    {
      "bufferView": 2,
      "byteOffset": 634224,
      "componentType": 5126,
      "count": 15509,
      "max": [
        2.9700300693511963,
        35.453498840332031,
        4.0663800239562988
      ],
      "min": [
        -5.09375,
        3.0982398986816406,
        -1.3192900419235229
      ],
      "type": "VEC3"
    },
    {
      "bufferView": 2,
      "byteOffset": 820332,
      "componentType": 5126,
      "count": 15509,
      "max": [
        0.99835485219955444,
        0.99951547384262085,
        1
      ],
      "min": [
        -1,
        -0.99998778104782104,
        -0.99850112199783325
      ],
      "type": "VEC3"
    },
    {
      "bufferView": 1,
      "byteOffset": 211408,
      "componentType": 5126,
      "count": 15509,
      "max": [
        0.99163198471069336,
        0.99191898107528687
      ],
      "min": [
        0.0080930003896355629,
        0.0087759997695684433
      ],
      "type": "VEC2"
    },
    {
      "bufferView": 0,
      "byteOffset": 550704,
      "componentType": 5125,
      "count": 77988,
      "max": [
        15508
      ],
      "min": [
        0
      ],
      "type": "SCALAR"
    },
    {
      "bufferView": 2,
      "byteOffset": 1006440,
      "componentType": 5126,
      "count": 5575,
      "max": [
        2.4471199512481689,
        35.447101593017578,
        4.069310188293457
      ],
      "min": [
        -4.8203401565551758,
        4.1389198303222656,
        -1.3401299715042114
      ],
      "type": "VEC3"
    },
    {
      "bufferView": 2,
      "byteOffset": 1073340,
      "componentType": 5126,
      "count": 5575,
      "max": [
        0.981894850730896,
        0.99733603000640869,
        0.99999696016311646
      ],
      "min": [
        -0.99996292591094971,
        -0.99907785654067993,
        -0.99943870306015015
      ],
      "type": "VEC3"
    },
    {
      "bufferView": 1,
      "byteOffset": 335480,
      "componentType": 5126,
      "count": 5575,
      "max": [
        0.99194300174713135,
        0.99194300174713135
      ],
      "min": [
        0.008070000447332859,
        0.4359239935874939
      ],
      "type": "VEC2"
    },
    {
      "bufferView": 0,
      "byteOffset": 862656,
      "componentType": 5125,
      "count": 23034,
      "max": [
        5574
      ],
      "min": [
        0
      ],
      "type": "SCALAR"
    }
  ],
  "asset": {
    "extras": {
      "author": "Guillermo (https://sketchfab.com/guillermosainz)",
      "license": "CC-BY-NC-SA-4.0 (http://creativecommons.org/licenses/by-nc-sa/4.0/)",
      "source": "https://sketchfab.com/3d-models/snowed-building-wall-in-dumbo-brooklyn-3fc15e985b8d463a89e1cc89d85cf658",
      "title": "Snowed building wall in Dumbo, Brooklyn"
    },
    "generator": "Sketchfab-9.90.0",
    "version": "2.0"
  },
  "bufferViews": [
    {
      "buffer": 0,
      "byteLength": 954792,
      "byteOffset": 0,
      "name": "floatBufferViews",
      "target": 34963
    },
    {
      "buffer": 0,
      "byteLength": 380080,
      "byteOffset": 954792,
      "byteStride": 8,
      "name": "floatBufferViews",
      "target": 34962
    },
    {
      "buffer": 0,
      "byteLength": 1140240,
      "byteOffset": 1334872,
      "byteStride": 12,
      "name": "floatBufferViews",
      "target": 34962
    }
  ],
  "buffers": [
    {
      "byteLength": 2475112,
      "uri": "scene.bin"
    }
  ],
  "extensionsUsed": [
    "KHR_materials_unlit"
  ],
  "images": [
    {
      "uri": "textures/cropped_textured_mesh_0_baseColor.jpeg"
    },
    {
      "uri": "textures/cropped_textured_mesh_1_baseColor.jpeg"
    },
    {
      "uri": "textures/cropped_textured_mesh_2_baseColor.jpeg"
    },
    {
      "uri": "textures/cropped_textured_mesh_3_baseColor.jpeg"
    }
  ],
  "materials": [
    {
      "doubleSided": true,
      "emissiveFactor": [
        0,
        0,
        0
      ],
      "extensions": {
        "KHR_materials_unlit": {}
      },
      "name": "cropped_textured_mesh_0",
      "pbrMetallicRoughness": {
        "baseColorFactor": [
          1,
          1,
          1,
          1
        ],
        "baseColorTexture": {
          "index": 0,
          "texCoord": 0
        },
        "metallicFactor": 0,
        "roughnessFactor": 1
      }
    },
    {
      "doubleSided": true,
      "emissiveFactor": [
        0,
        0,
        0
      ],
      "extensions": {
        "KHR_materials_unlit": {}
      },
      "name": "cropped_textured_mesh_1",
      "pbrMetallicRoughness": {
        "baseColorFactor": [
          1,
          1,
          1,
          1
        ],
        "baseColorTexture": {
          "index": 1,
          "texCoord": 0
        },
        "metallicFactor": 0,
        "roughnessFactor": 1
      }
    },
    {
      "doubleSided": true,
      "emissiveFactor": [
        0,
        0,
        0
      ],
      "extensions": {
        "KHR_materials_unlit": {}
      },
      "name": "cropped_textured_mesh_2",
      "pbrMetallicRoughness": {
        "baseColorFactor": [
          1,
          1,
          1,
          1
        ],
        "baseColorTexture": {
          "index": 2,
          "texCoord": 0
        },
        "metallicFactor": 0,
        "roughnessFactor": 1
      }
    },
    {
      "doubleSided": true,
      "emissiveFactor": [
        0,
        0,
        0
      ],
      "extensions": {
        "KHR_materials_unlit": {}
      },
      "name": "cropped_textured_mesh_3",
      "pbrMetallicRoughness": {
        "baseColorFactor": [
          1,
          1,
          1,
          1
        ],
        "baseColorTexture": {
          "index": 3,
          "texCoord": 0
        },
        "metallicFactor": 0,
        "roughnessFactor": 1
      }
    }
  ],
  "meshes": [
    {
      "primitives": [
        {
          "attributes": {
            "NORMAL": 1,
            "POSITION": 0,
            "TEXCOORD_0": 2
          },
          "indices": 3,
          "material": 0,
          "mode": 4
        }
      ]
    },
    {
      "primitives": [
        {
          "attributes": {
            "NORMAL": 5,
            "POSITION": 4,
            "TEXCOORD_0": 6
          },
          "indices": 7,
          "material": 1,
          "mode": 4
        }
      ]
    },
    {
      "primitives": [
        {
          "attributes": {
            "NORMAL": 9,
            "POSITION": 8,
            "TEXCOORD_0": 10
          },
          "indices": 11,
          "material": 2,
          "mode": 4
        }
      ]
    },
    {
      "primitives": [
        {
          "attributes": {
            "NORMAL": 13,
            "POSITION": 12,
            "TEXCOORD_0": 14
          },
          "indices": 15,
          "material": 3,
          "mode": 4
        }
      ]
    }
  ],
  "nodes": [
    {
      "children": [
        1
      ],
      "name": "RootNode (gltf orientation matrix)",
      "rotation": [
        -0.70710678118654746,
        -0,
        -0,
        0.70710678118654757
      ]
    },
    {
      "children": [
        2
      ],
      "name": "RootNode (model correction matrix)"
    },
    {
      "children": [
        3,
        4,
        5,
        6
      ],
      "name": "cropped_textured_mesh.obj.cleaner.materialmerger.gles"
    },
    {
      "mesh": 0,
      "name": ""
    },
    {
      "mesh": 1,
      "name": ""
    },
    {
      "mesh": 2,
      "name": ""
    },
    {
      "mesh": 3,
      "name": ""
    }
  ],
  "samplers": [
    {
      "magFilter": 9729,
      "minFilter": 9987,
      "wrapS": 10497,
      "wrapT": 10497
    }
  ],
  "scene": 0,
  "scenes": [
    {
      "name": "OSG_Scene",
      "nodes": [
        0
      ]
    }
  ],
  "textures": [
    {
      "sampler": 0,
      "source": 0
    },
    {
      "sampler": 0,
      "source": 1
    },
    {
      "sampler": 0,
      "source": 2
    },
    {
      "sampler": 0,
      "source": 3
    }
  ]
}

